<svg xmlns="http://www.w3.org/2000/svg" width="399.38" height="110.288" viewBox="0 0 399.38 110.288">
  <g id="Group_12" data-name="Group 12" transform="translate(-69.77 -600)">
    <g id="Group_1" data-name="Group 1" transform="translate(-754.774 69.042)">
      <rect id="Rectangle_4" data-name="Rectangle 4" width="31.194" height="31.194" transform="translate(868.659 553.016) rotate(45)" fill="#fff" opacity="0.6"/>
      <path id="Rectangle_11" data-name="Rectangle 11" d="M0,0H31.194V31.194H4a4,4,0,0,1-4-4Z" transform="translate(846.602 575.073) rotate(45)" fill="#fff" opacity="0.8"/>
      <rect id="Rectangle_7" data-name="Rectangle 7" width="31.194" height="31.194" transform="translate(912.774 553.016) rotate(45)" fill="#fff" opacity="0.6"/>
      <rect id="Rectangle_9" data-name="Rectangle 9" width="31.194" height="31.194" transform="translate(890.716 575.073) rotate(45)" fill="#fff" opacity="0.8"/>
      <path id="Rectangle_13" data-name="Rectangle 13" d="M0,0H31.194V27.194a4,4,0,0,1-4,4H0Z" transform="translate(912.774 597.131) rotate(45)" fill="#fff"/>
      <path id="Rectangle_14" data-name="Rectangle 14" d="M0,0H31.194V27.194a4,4,0,0,1-4,4H0Z" transform="translate(868.659 597.131) rotate(45)" fill="#fff"/>
      <path id="Rectangle_15" data-name="Rectangle 15" d="M0,0H31.194V27.194a4,4,0,0,1-4,4H0Z" transform="translate(956.889 597.131) rotate(45)" fill="#fff"/>
      <rect id="Rectangle_10" data-name="Rectangle 10" width="31.194" height="31.194" transform="translate(934.831 575.073) rotate(45)" fill="#fff" opacity="0.8"/>
      <path id="Rectangle_12" data-name="Rectangle 12" d="M0,0H27.194a4,4,0,0,1,4,4V31.194H0Z" transform="translate(978.946 575.073) rotate(45)" fill="#fff" opacity="0.8"/>
      <rect id="Rectangle_8" data-name="Rectangle 8" width="31.194" height="31.194" transform="translate(956.889 553.016) rotate(45)" fill="#fff" opacity="0.6"/>
      <path id="Rectangle_5" data-name="Rectangle 5" d="M3,0H31.194V31.194H0V3A3,3,0,0,1,3,0Z" transform="translate(890.716 530.958) rotate(45)" fill="#fff" opacity="0.4"/>
      <path id="Rectangle_6" data-name="Rectangle 6" d="M3,0H31.194V31.194H0V3A3,3,0,0,1,3,0Z" transform="translate(934.831 530.958) rotate(45)" fill="#fff" opacity="0.4"/>
    </g>
    <path id="Path_2" data-name="Path 2" d="M39.84-11.4h21.3A17.441,17.441,0,0,0,61.5-15c0-9.06-6.48-15.84-15.24-15.84-9.48,0-15.96,6.9-15.96,15.84S36.66.84,46.92.84c5.7,0,10.14-2.1,13.08-6.18L52.8-9.48A7.834,7.834,0,0,1,47.04-7.2C43.74-7.2,40.98-8.28,39.84-11.4Zm-.18-6.72c.84-3.06,3.12-4.74,6.54-4.74a6.176,6.176,0,0,1,6.36,4.74Z" transform="translate(241.71 686.42)" fill="#fff"/>
    <path id="Path_3" data-name="Path 3" d="M13.2-7.24V-42H3.6V2H30.2V-7.24Z" transform="translate(261.77 640.4) rotate(90)" fill="#fff"/>
    <path id="Path_4" data-name="Path 4" d="M29.64-21.78A10.514,10.514,0,0,0,33.3-30c0-7.26-5.94-12-13.26-12H3.6V0H21.24C28.74,0,34.8-4.86,34.8-12.3A10.845,10.845,0,0,0,29.64-21.78ZM20.04-33a3.512,3.512,0,0,1,3.66,3.72,3.545,3.545,0,0,1-3.66,3.72H13.2V-33Zm1.2,24H13.2v-8.04h8.04a3.8,3.8,0,0,1,3.96,4.02A3.8,3.8,0,0,1,21.24-9ZM39.3,0h9V-43.8h-9ZM62.94-11.4h21.3A17.442,17.442,0,0,0,84.6-15c0-9.06-6.48-15.84-15.24-15.84-9.48,0-15.96,6.9-15.96,15.84S59.76.84,70.02.84c5.7,0,10.14-2.1,13.08-6.18L75.9-9.48A7.834,7.834,0,0,1,70.14-7.2C66.84-7.2,64.08-8.28,62.94-11.4Zm-.18-6.72c.84-3.06,3.12-4.74,6.54-4.74a6.176,6.176,0,0,1,6.36,4.74ZM109.08-30v16.38c0,4.26-2.28,6.18-5.58,6.18-2.88,0-5.22-1.74-5.22-5.46V-30h-9v18.42C89.28-3.48,94.44.84,100.5.84c3.96,0,6.96-1.44,8.58-3.66V0h9V-30Zm23.64,18.6h21.3a17.442,17.442,0,0,0,.36-3.6c0-9.06-6.48-15.84-15.24-15.84-9.48,0-15.96,6.9-15.96,15.84S129.54.84,139.8.84c5.7,0,10.14-2.1,13.08-6.18l-7.2-4.14a7.834,7.834,0,0,1-5.76,2.28C136.62-7.2,133.86-8.28,132.72-11.4Zm-.18-6.72c.84-3.06,3.12-4.74,6.54-4.74a6.176,6.176,0,0,1,6.36,4.74Z" transform="translate(314.77 686)" fill="#fff"/>
  </g>
</svg>
